{
    "asset": {
        "version": "2.0",
        "generator": "Open Asset Import Library (assimp v5.4.0)"
    },
    "extensionsUsed": [
        "KHR_materials_volume",
        "FB_ngon_encoding"
    ],
    "accessors": [
        {
            "bufferView": 0,
            "byteOffset": 0,
            "componentType": 5126,
            "count": 4363,
            "type": "VEC3",
            "max": [
                2.2561769485473633,
                7.86088228225708,
                1.7499704360961914
            ],
            "min": [
                -2.2601356506347656,
                -8.089133262634277,
                -1.7443852424621582
            ]
        },
        {
            "bufferView": 1,
            "byteOffset": 0,
            "componentType": 5126,
            "count": 4363,
            "type": "VEC3",
            "max": [
                0.9996253252029419,
                0.9996951818466187,
                0.9997720122337341
            ],
            "min": [
                -0.9999966621398926,
                -0.9999999403953552,
                -0.9993693828582764
            ]
        },
        {
            "bufferView": 2,
            "byteOffset": 0,
            "componentType": 5125,
            "count": 25566,
            "type": "SCALAR",
            "max": [
                4362
            ],
            "min": [
                0
            ]
        }
    ],
    "buffers": [
        {
            "byteLength": 206976,
            "uri": "man_0.bin"
        }
    ],
    "bufferViews": [
        {
            "buffer": 0,
            "byteOffset": 0,
            "byteLength": 52356,
            "target": 34962
        },
        {
            "buffer": 0,
            "byteOffset": 52356,
            "byteLength": 52356,
            "target": 34962
        },
        {
            "buffer": 0,
            "byteOffset": 104712,
            "byteLength": 102264,
            "target": 34963
        }
    ],
    "images": [
        {
            "uri": "textures/image_0.png"
        }
    ],
    "materials": [
        {
            "name": "55",
            "pbrMetallicRoughness": {
                "baseColorTexture": {
                    "index": 0
                },
                "metallicFactor": 0.0
            },
            "doubleSided": true
        }
    ],
    "meshes": [
        {
            "name": "meshes[0]",
            "primitives": [
                {
                    "mode": 4,
                    "material": 0,
                    "indices": 2,
                    "attributes": {
                        "POSITION": 0,
                        "NORMAL": 1
                    }
                }
            ]
        }
    ],
    "nodes": [
        {
            "name": "man",
            "children": [
                1
            ]
        },
        {
            "name": "root",
            "children": [
                2
            ],
            "extras": {
                "name": "root"
            }
        },
        {
            "name": "mesh_id34",
            "matrix": [
                0.019260268658399582,
                0.0,
                0.007889301516115665,
                0.0,
                0.0,
                0.020813433453440666,
                0.0,
                0.0,
                -0.007889301516115665,
                0.0,
                0.01926027052104473,
                0.0,
                -0.01181673165410757,
                0.007790890987962484,
                0.22063155472278595,
                1.0
            ],
            "mesh": 0
        }
    ],
    "samplers": [
        {
            "magFilter": 9729,
            "minFilter": 9985
        }
    ],
    "scenes": [
        {
            "nodes": [
                0
            ]
        }
    ],
    "textures": [
        {
            "source": 0,
            "sampler": 0
        }
    ],
    "scene": 0
}